<?xml version="1.0" encoding="UTF-8" standalone="no"?>
<svg width="790px" height="256px" viewBox="0 0 790 256" version="1.1" xmlns="http://www.w3.org/2000/svg" xmlns:xlink="http://www.w3.org/1999/xlink" xmlns:sketch="http://www.bohemiancoding.com/sketch/ns">
    <!-- Generator: Sketch 3.2.2 (9983) - http://www.bohemiancoding.com/sketch -->
    <title>Slice 1</title>
    <desc>Created with Sketch.</desc>
    <defs></defs>
    <g id="Page-1" stroke="none" stroke-width="1" fill="none" fill-rule="evenodd" sketch:type="MSPage">
        <g id="Oval-1-+-noun_103824_cc" sketch:type="MSLayerGroup" transform="translate(267.000000, 0.000000)">
            <circle id="Oval-1" fill="#EFF1F5" sketch:type="MSShapeGroup" cx="128" cy="128" r="128"></circle>
            <g id="noun_103824_cc" transform="translate(62.000000, 73.500000)" fill="#65737F" sketch:type="MSShapeGroup">
                <path d="M7.59813415,76.1006944 L0.279036585,28.7730201 C-0.716835366,22.3348404 3.69643293,16.3102689 10.1367256,15.3147237 L106.946384,0.352689125 C113.386677,-0.642856087 119.413226,3.76896424 120.409098,10.2071439 L122.19878,21.7785535 C121.34403,21.615034 120.463622,21.5220523 119.562366,21.5220523 L21.6028841,21.5220523 C13.8812683,21.5220523 7.59813415,27.8015219 7.59813415,35.5206043 L7.59813415,76.1006944 L7.59813415,76.1006944 Z M131.362085,35.5206043 L131.362085,96.4925384 C131.362085,103.006065 126.079634,108.288387 119.562366,108.288387 L21.6028841,108.288387 C15.0872195,108.288387 9.80316463,103.007668 9.80316463,96.4925384 L9.80316463,35.5206043 C9.80316463,29.0070774 15.0856159,23.7247562 21.6028841,23.7247562 L119.562366,23.7247562 C126.079634,23.7263593 131.362085,29.0070774 131.362085,35.5206043 L131.362085,35.5206043 Z M64.3419878,88.2877069 L67.454689,88.2877069 L67.454689,82.8146129 L64.3419878,82.8146129 L64.3419878,88.2877069 L64.3419878,88.2877069 Z M58.5896646,88.2877069 L61.7023659,88.2877069 L61.7023659,82.8146129 L58.5896646,82.8146129 L58.5896646,88.2877069 L58.5896646,88.2877069 Z M52.8373415,88.2877069 L55.9500427,88.2877069 L55.9500427,82.8146129 L52.8373415,82.8146129 L52.8373415,88.2877069 L52.8373415,88.2877069 Z M47.0882256,88.2877069 L50.2009268,88.2877069 L50.2009268,82.8146129 L47.0882256,82.8146129 L47.0882256,88.2877069 L47.0882256,88.2877069 Z M20.0986524,59.8834072 C20.0986524,61.6019651 21.4922317,62.9950872 23.2113537,62.9950872 L37.7004085,62.9950872 C39.4195305,62.9950872 40.8131098,61.6019651 40.8131098,59.8834072 L40.8131098,58.1584368 L35.3494451,58.1584368 L35.3494451,56.550495 L40.8131098,56.550495 L40.8131098,52.5346483 L35.3494451,52.5346483 L35.3494451,50.9267066 L40.8131098,50.9267066 L40.8131098,48.9227911 C40.8131098,47.2042332 39.4195305,45.8111111 37.7004085,45.8111111 L23.2113537,45.8111111 C21.4922317,45.8111111 20.0986524,47.2042332 20.0986524,48.9227911 L20.0986524,50.9267066 L25.5623171,50.9267066 L25.5623171,52.5346483 L20.0986524,52.5346483 L20.0986524,56.5520981 L25.5623171,56.5520981 L25.5623171,58.1600399 L20.0986524,58.1600399 L20.0986524,59.8834072 L20.0986524,59.8834072 Z M37.6891829,82.8146129 L37.6891829,88.2877069 L40.8018841,88.2877069 L40.8018841,82.8146129 L37.6891829,82.8146129 L37.6891829,82.8146129 Z M31.9368598,82.8146129 L31.9368598,88.2877069 L35.049561,88.2877069 L35.049561,82.8146129 L31.9368598,82.8146129 L31.9368598,82.8146129 Z M26.1845366,82.8146129 L26.1845366,88.2877069 L29.2972378,88.2877069 L29.2972378,82.8146129 L26.1845366,82.8146129 L26.1845366,82.8146129 Z M20.4338171,82.8146129 L20.4338171,88.2877069 L23.5465183,88.2877069 L23.5465183,82.8146129 L20.4338171,82.8146129 L20.4338171,82.8146129 Z M20.0986524,95.796779 L45.4492866,95.796779 L45.4492866,92.685099 L20.0986524,92.685099 L20.0986524,95.796779 L20.0986524,95.796779 Z M56.1120122,101.250635 L20.0986524,101.250635 L20.0986524,102.805674 L56.1120122,102.805674 L56.1120122,101.250635 L56.1120122,101.250635 Z M76.5714878,92.685099 L51.2208537,92.685099 L51.2208537,95.796779 L76.5714878,95.796779 L76.5714878,92.685099 L76.5714878,92.685099 Z M76.852128,82.8146129 L73.7394268,82.8146129 L73.7394268,88.2877069 L76.852128,88.2877069 L76.852128,82.8146129 L76.852128,82.8146129 Z M82.6044512,82.8146129 L79.49175,82.8146129 L79.49175,88.2877069 L82.6044512,88.2877069 L82.6044512,82.8146129 L82.6044512,82.8146129 Z M88.3567744,82.8146129 L85.2440732,82.8146129 L85.2440732,88.2877069 L88.3567744,88.2877069 L88.3567744,82.8146129 L88.3567744,82.8146129 Z M94.1090976,82.8146129 L90.9963963,82.8146129 L90.9963963,88.2877069 L94.1090976,88.2877069 L94.1090976,82.8146129 L94.1090976,82.8146129 Z M103.50814,82.8146129 L100.395439,82.8146129 L100.395439,88.2877069 L103.50814,88.2877069 L103.50814,82.8146129 L103.50814,82.8146129 Z M109.257256,82.8146129 L106.146159,82.8146129 L106.146159,88.2877069 L109.25886,88.2877069 L109.25886,82.8146129 L109.257256,82.8146129 Z M115.009579,82.8146129 L111.896878,82.8146129 L111.896878,88.2877069 L115.009579,88.2877069 L115.009579,82.8146129 L115.009579,82.8146129 Z M120.761902,82.8146129 L117.649201,82.8146129 L117.649201,88.2877069 L120.761902,88.2877069 L120.761902,82.8146129 L120.761902,82.8146129 Z M28.282122,47.6771572 L26.6736524,47.6771572 L26.6736524,61.1290411 L28.282122,61.1290411 L28.282122,47.6771572 L28.282122,47.6771572 Z M33.8917195,47.6771572 L32.28325,47.6771572 L32.28325,61.1290411 L33.8917195,61.1290411 L33.8917195,47.6771572 L33.8917195,47.6771572 Z" id="Shape"></path>
            </g>
        </g>
    </g>
</svg>